<svg width="1024" height="1024" viewBox="0 0 1024 1024" xmlns="http://www.w3.org/2000/svg">
  <!-- macOS squircle background (sky blue; sheen overlay adds depth) -->
  <rect x="64" y="64" width="896" height="896" rx="220" ry="220" fill="#3FA9E4"/>
  <rect x="64" y="64" width="896" height="470" rx="220" ry="220" fill="#FFFFFF" opacity="0.14"/>
  <rect x="64" y="600" width="896" height="360" rx="220" ry="220" fill="#000000" opacity="0.08"/>

  <!-- drop-shadow substitute behind the sheet -->
  <rect x="252" y="220" width="536" height="620" rx="34" ry="34" fill="#12547E" opacity="0.28"/>

  <!-- paper sheet -->
  <rect x="236" y="196" width="536" height="620" rx="34" ry="34" fill="#FCFDF9"/>

  <!-- folded corner (dog-ear) top-right -->
  <path d="M 660 196 L 772 308 L 660 308 Z" fill="#E4EBDD"/>

  <!-- syntax-highlighted code lines -->
  <g>
    <rect x="296" y="300" width="150" height="30" rx="15" fill="#C74A56"/>
    <rect x="466" y="300" width="120" height="30" rx="15" fill="#3B7FD4"/>

    <rect x="336" y="368" width="110" height="30" rx="15" fill="#E0932F"/>
    <rect x="466" y="368" width="200" height="30" rx="15" fill="#7A828A"/>

    <rect x="336" y="436" width="180" height="30" rx="15" fill="#3B7FD4"/>
    <rect x="536" y="436" width="90"  height="30" rx="15" fill="#C74A56"/>

    <rect x="296" y="504" width="130" height="30" rx="15" fill="#7A828A"/>
    <rect x="446" y="504" width="150" height="30" rx="15" fill="#33A15A"/>

    <rect x="336" y="572" width="120" height="30" rx="15" fill="#E0932F"/>
    <rect x="476" y="572" width="160" height="30" rx="15" fill="#3B7FD4"/>

    <rect x="296" y="640" width="90"  height="30" rx="15" fill="#7A828A"/>
    <rect x="406" y="640" width="140" height="30" rx="15" fill="#C74A56"/>
  </g>

  <!-- green pencil (bigger; rotation baked into absolute polygon coords; ImageMagick-safe) -->
  <polygon points="299.6,803.9 670.9,387.4 603.7,327.5 232.4,744.1" fill="#000000" opacity="0.16"/>
  <polygon points="281.4,787.9 323.9,740.2 261.2,684.3 218.6,732.1" fill="#E58AA0"/>
  <polygon points="323.9,740.2 347.9,713.3 285.2,657.4 261.2,684.3" fill="#D9DEE2"/>
  <polygon points="331.3,732.0 333.9,729.0 271.2,673.1 268.5,676.1" fill="#B4BBC1"/>
  <polygon points="339.9,722.3 342.6,719.3 279.9,663.4 277.2,666.4" fill="#B4BBC1"/>
  <polygon points="347.9,713.3 594.1,437.1 531.4,381.2 285.2,657.4" fill="#46B36A"/>
  <polygon points="338.9,705.3 585.1,429.1 571.7,417.1 325.5,693.3" fill="#FFFFFF" opacity="0.28"/>
  <polygon points="305.3,675.4 551.5,399.2 538.1,387.2 291.9,663.4" fill="#000000" opacity="0.10"/>
  <polygon points="594.1,437.1 531.4,381.2 623.9,340.5" fill="#EFDDBB"/>
  <polygon points="608.4,377.5 588.9,360.2 623.9,340.5" fill="#2B2B2B"/>

  <!-- "++" badge -->
  <circle cx="792" cy="792" r="116" fill="#1C6FA8"/>
  <circle cx="792" cy="792" r="116" fill="#FFFFFF" opacity="0.10"/>
  <g fill="#FFFFFF">
    <rect x="724" y="778" width="56" height="18" rx="9"/>
    <rect x="743" y="759" width="18" height="56" rx="9"/>
    <rect x="806" y="778" width="56" height="18" rx="9"/>
    <rect x="825" y="759" width="18" height="56" rx="9"/>
  </g>
</svg>
